<svg height="512pt" viewBox="0 -34 512 512" width="512pt" xmlns="http://www.w3.org/2000/svg"><path d="m511.601562 209.800781c-.101562-20.402343-16.703124-37-37.203124-37l-125.796876.300781-.402343-136.101562c-.097657-20.398438-16.699219-37-37.097657-37l-116.203124.300781-64.296876.199219c-2.800781 0-5.5 1.101562-7.5 3.101562s-3.101562 4.699219-3.101562 7.5c0 5.796876 4.800781 10.5 10.601562 10.5l64.296876-.203124 116.101562-.296876c8.800781 0 15.898438 7.097657 15.898438 15.898438l.402343 148.199219c0 4.300781-1.601562 8.300781-4.601562 11.300781s-7 4.699219-11.300781 4.699219l-149.398438.5c-3.101562 0-6 1.300781-8 3.699219l-34 39.402343-38.398438-39.699219c-2-2.101562-4.800781-3.300781-7.601562-3.203124l-36.398438.101562c-4.203124 0-8.203124-1.601562-11.203124-4.601562s-4.699219-7-4.699219-11.296876l-.5-148.203124c0-4.296876 1.601562-8.296876 4.601562-11.296876s7-4.703124 11.300781-4.703124h13.898438c5.800781 0 10.601562-4.796876 10.5-10.597657 0-2.800781-1.101562-5.5-3.199219-7.5-2-2-4.699219-3.101562-7.5-3h-13.800781c-9.898438 0-19.199219 3.898438-26.199219 10.898438-7 7.101562-10.800781 16.402343-10.800781 26.300781l.398438 148.199219c0 9.902343 3.902343 19.199219 11 26.199219 7 6.902343 16.300781 10.800781 26.101562 10.800781h.199219l31.902343-.097657 43.296876 44.796876c2 2 4.800781 3.203124 7.601562 3.203124h.300781c3-.101562 5.800781-1.402343 7.699219-3.703124l38.398438-44.597657 38.902343-.101562.097657 136.101562c0 9.898438 3.902343 19.199219 10.902343 26.199219s16.300781 10.800781 26.199219 10.800781l102.800781-.300781 38.699219 44.398438c1.898438 2.203124 4.800781 3.601562 7.699219 3.601562h.199219c2.902343 0 5.703124-1.199219 7.601562-3.300781l43.101562-45 31.898438-.097657c9.898438 0 19.199219-3.902343 26.199219-10.902343s10.800781-16.398438 10.800781-26.300781zm-20.800781 148.300781c0 4.296876-1.601562 8.296876-4.601562 11.296876s-7 4.703124-11.300781 4.703124l-36.398438.097657c-2.898438 0-5.601562 1.199219-7.601562 3.300781l-38.199219 39.898438-34.300781-39.296876c-2-2.300781-4.898438-3.601562-7.898438-3.601562h-.101562l-107.398438.199219c-4.199219 0-8.199219-1.597657-11.199219-4.597657s-4.699219-7-4.699219-11.203124l-.101562-136.199219 84.699219-.199219c17.101562 0 31.800781-11.601562 35.902343-28.101562l127-.398438c8.796876 0 15.898438 7.101562 15.898438 15.898438zm0 0"/><path d="m88.199219 21.699219.199219.101562c1 .300781 2 .398438 3 .398438 4.601562 0 8.800781-3.097657 10.101562-7.5 1.699219-5.597657-1.5-11.5-7.101562-13.199219l-.199219-.101562c-5.597657-1.699219-11.5 1.5-13.199219 7.101562-1.5 5.601562 1.601562 11.5 7.199219 13.199219zm0 0"/><path d="m143.699219 174c4.902343 0 7.800781-1.699219 8.800781-5.101562l5.398438-19.898438h33.5l5.402343 19.898438c.898438 3.402343 3.898438 5.101562 8.800781 5.101562 3.898438 0 7.597657-1.101562 11.199219-3.199219 3.699219-2.101562 5.5-4.800781 5.5-7.699219 0-.402343-.101562-1-.300781-1.902343l-30.398438-99.097657c-.902343-2.800781-3-5-6.203124-6.601562-3.097657-1.5-6.796876-2.199219-10.898438-2.199219s-7.699219.800781-10.898438 2.199219c-3.203124 1.5-5.300781 3.699219-6.203124 6.601562l-30.199219 99.199219c-.199219.898438-.300781 1.5-.300781 1.898438 0 3 1.902343 5.601562 5.5 7.699219 3.601562 2 7.402343 3.101562 11.300781 3.101562zm19.601562-45.5 11.199219-41.199219 11.199219 41.199219zm0 0"/><path d="m390.898438 272c.203124-1.898438-.398438-3.601562-1.597657-5.101562-2-2.199219-5.699219-3.597657-9.902343-3.597657-4.296876 0-7 1.800781-8.199219 5.597657-6.398438 0-12.398438.601562-18.097657 1.800781.097657-3.199219.199219-5.398438.398438-7.898438.699219 0 1.398438-.101562 2.199219-.101562 1.699219-.097657 3.699219-.199219 6.300781-.398438 2.5-.199219 5.5-.5 8.800781-.902343 3.597657-.398438 7.398438-.796876 10.898438-1 13.101562-1.296876 17.300781-4 17.300781-11.296876 0-5.703124-3.398438-9.601562-8.199219-9.601562-.902343 0-1.902343 0-4 .398438l-1.800781.300781c-11.898438 1.800781-17.398438 2.699219-29.800781 3.5.402343-3.199219.699219-6.300781.699219-8.199219 0-5.199219-3.398438-8.101562-9.597657-8.101562-7.902343.101562-10.199219 3.5-11.402343 17.101562h-4.398438c-1.5 0-3.699219 0-5.800781-.101562-2.097657 0-4.199219-.097657-5.597657-.097657-6.703124 0-9.402343 2.597657-9.402343 9.398438 0 10.101562 5.800781 10.101562 17.5 10.101562 2.101562 0 4.402343 0 6.699219-.199219v.398438c-.199219 4.5-.398438 8.699219-.5 13.398438-19.199219 9.703124-29.796876 24.402343-29.796876 41.5 0 15.101562 7.898438 23.703124 21.796876 23.703124 5.203124 0 9.5-1 15.101562-3.402343 1.699219 2.699219 3.601562 3.699219 7 3.699219 6.898438 0 12-4 12-9.199219 0-1.699219-.398438-3.699219-1.300781-6.300781 9.402343-8.597657 19.199219-22.597657 26.402343-37.597657 6.296876 2.800781 9.796876 8.398438 9.796876 15.800781 0 14.097657-11.796876 18.796876-19.597657 21.898438l-.199219.101562c-4.203124 1.597657-6.402343 4.796876-6.402343 9.199219 0 5.898438 4.800781 10.800781 10.601562 10.800781 7.699219 0 36.199219-10.601562 36.199219-42.300781.199219-16.300781-8.699219-28.402343-24.101562-33.300781zm-25.597657 14.699219c-2.199219 5.402343-6.800781 12.902343-11.402343 18.601562-.398438-4-1-11.800781-1-16.199219 4.101562-1.203124 8.101562-2 12.402343-2.402343zm-31.402343 12.101562c.402343 7.199219 1.101562 14.398438 2.203124 21.300781-3.800781 2.097657-6.902343 3.097657-9.203124 3.097657-2.597657 0-4.296876-2.300781-4.296876-5.699219 0-8.199219 5.097657-13.199219 11.296876-18.699219zm0 0"/></svg>